<?xml version="1.0" encoding="utf-8"?>
<!-- Generator: Adobe Illustrator 24.1.0, SVG Export Plug-In . SVG Version: 6.00 Build 0)  -->
<svg version="1.1" id="Calque_1" xmlns="http://www.w3.org/2000/svg" xmlns:xlink="http://www.w3.org/1999/xlink" x="0px" y="0px"
	 viewBox="0 0 164.7 143.6" style="enable-background:new 0 0 164.7 143.6;" xml:space="preserve">
<style type="text/css">
	.st0{display:none;}
	.st1{fill:url(#SVGID_1_);}
	.st2{fill:url(#SVGID_2_);}
	.st3{fill:url(#SVGID_3_);}
	.st4{fill:url(#SVGID_4_);}
	.st5{fill:url(#SVGID_5_);}
	.st6{fill:url(#SVGID_6_);}
	.st7{fill:url(#SVGID_7_);}
	.st8{fill:url(#SVGID_8_);}
	.st9{fill:url(#SVGID_9_);}
	.st10{display:none;fill-rule:evenodd;clip-rule:evenodd;fill:#FF5310;}
	.st11{display:none;fill:#0E28E2;}
</style>
<rect x="-16.8" y="-21.5" class="st0" width="198.4" height="198.4"/>
<image style="display:none;overflow:visible;enable-background:new    ;" width="67" height="56" xlink:href="10A339EEB5658322.png"  transform="matrix(3.3888 0 0 2.9606 -3.7965 -5.1852)">
</image>
<g>
	<g>
		<linearGradient id="SVGID_1_" gradientUnits="userSpaceOnUse" x1="0" y1="71.795" x2="164.73" y2="71.795">
			<stop  offset="0" style="stop-color:#FF5310"/>
			<stop  offset="0.1312" style="stop-color:#DA5429"/>
			<stop  offset="0.3544" style="stop-color:#A15550"/>
			<stop  offset="0.5608" style="stop-color:#73576F"/>
			<stop  offset="0.7437" style="stop-color:#535786"/>
			<stop  offset="0.8964" style="stop-color:#3F5893"/>
			<stop  offset="1" style="stop-color:#385898"/>
		</linearGradient>
		<path class="st1" d="M164.7,11.3v121c0,6.2-5.1,11.3-11.3,11.3h-26.5V93.9h16.1l2.6-20h-18.7V60.2c0-5.8,1.6-9.7,9.9-9.7h10.6
			V32.6c-1.8-0.2-8.1-0.8-15.4-0.8c-15.2,0-25.7,9.3-25.7,26.4v15.7H89.5v20h16.8v49.7h-95c-6.2,0-11.3-5.1-11.3-11.3v-121
			C0,5.1,5.1,0,11.3,0h17c0,0-0.1,0-0.1,0L11.3,10c-0.1,0-0.1,0.1-0.1,0.1c0,0-0.1,0.1-0.1,0.1c0,0-0.1,0.1-0.1,0.2
			c0,0-0.1,0.1-0.1,0.1c0,0.1-0.1,0.2-0.1,0.2c0,0,0,0.1,0,0.1c0,0.1,0,0.2,0,0.4v59.3c0,0.5,0.3,1,0.7,1.2l33.8,19.9
			c0.1,0,0.2,0.1,0.2,0.1c0,0,0.1,0,0.1,0c0.2,0.1,0.5,0.1,0.7,0c0,0,0.1,0,0.1,0c0.1,0,0.2-0.1,0.2-0.1l33.9-19.9
			c0.4-0.3,0.7-0.7,0.7-1.2V51.6l16.2-9.6c0.4-0.2,0.7-0.7,0.7-1.2V21.1c0-0.1,0-0.2-0.1-0.4c0,0,0-0.1-0.1-0.1
			c0-0.1-0.1-0.2-0.1-0.2c0,0-0.1-0.1-0.1-0.1c0-0.1-0.1-0.1-0.1-0.2c-0.1,0-0.1-0.1-0.1-0.1c-0.1,0-0.1-0.1-0.2-0.1l-16.9-10
			c-0.4-0.3-1-0.3-1.4,0l-16.9,10c-0.1,0-0.1,0.1-0.2,0.1c-0.1,0-0.1,0.1-0.1,0.1c-0.1,0-0.1,0.1-0.1,0.2c0,0-0.1,0.1-0.1,0.1
			c0,0.1-0.1,0.1-0.1,0.2c0,0,0,0.1-0.1,0.1c0,0.1-0.1,0.2-0.1,0.4V40l-14.1,8.3v-37c0-0.1,0-0.2-0.1-0.4c0,0,0-0.1-0.1-0.1
			c0-0.1,0-0.2-0.1-0.2c0,0-0.1-0.1-0.1-0.1c0-0.1-0.1-0.1-0.1-0.2c0,0-0.1-0.1-0.1-0.1s-0.1-0.1-0.2-0.1h0L29.7,0c0,0,0,0-0.1,0
			h123.9C159.7,0,164.7,5.1,164.7,11.3z"/>
		<linearGradient id="SVGID_2_" gradientUnits="userSpaceOnUse" x1="81.16" y1="35.925" x2="95.27" y2="35.925">
			<stop  offset="0" style="stop-color:#FF5310"/>
			<stop  offset="0.1312" style="stop-color:#DA5429"/>
			<stop  offset="0.3544" style="stop-color:#A15550"/>
			<stop  offset="0.5608" style="stop-color:#73576F"/>
			<stop  offset="0.7437" style="stop-color:#535786"/>
			<stop  offset="0.8964" style="stop-color:#3F5893"/>
			<stop  offset="1" style="stop-color:#385898"/>
		</linearGradient>
		<polygon class="st2" points="81.2,31.9 89.3,27 95.3,23.6 95.3,40 81.2,48.3 		"/>
		<linearGradient id="SVGID_3_" gradientUnits="userSpaceOnUse" x1="65.64" y1="21.06" x2="93.85" y2="21.06">
			<stop  offset="0" style="stop-color:#FF5310"/>
			<stop  offset="0.1312" style="stop-color:#DA5429"/>
			<stop  offset="0.3544" style="stop-color:#A15550"/>
			<stop  offset="0.5608" style="stop-color:#73576F"/>
			<stop  offset="0.7437" style="stop-color:#535786"/>
			<stop  offset="0.8964" style="stop-color:#3F5893"/>
			<stop  offset="1" style="stop-color:#385898"/>
		</linearGradient>
		<polygon class="st3" points="79.8,12.8 93.8,21.1 79.8,29.4 65.6,21.1 		"/>
		<linearGradient id="SVGID_4_" gradientUnits="userSpaceOnUse" x1="47.3" y1="70.64" x2="78.34" y2="70.64">
			<stop  offset="0" style="stop-color:#FF5310"/>
			<stop  offset="0.1312" style="stop-color:#DA5429"/>
			<stop  offset="0.3544" style="stop-color:#A15550"/>
			<stop  offset="0.5608" style="stop-color:#73576F"/>
			<stop  offset="0.7437" style="stop-color:#535786"/>
			<stop  offset="0.8964" style="stop-color:#3F5893"/>
			<stop  offset="1" style="stop-color:#385898"/>
		</linearGradient>
		<polygon class="st4" points="70.3,58 78.3,53.3 78.3,69.7 47.3,88 47.3,71.4 		"/>
		<linearGradient id="SVGID_5_" gradientUnits="userSpaceOnUse" x1="64.23" y1="35.925" x2="78.34" y2="35.925">
			<stop  offset="0" style="stop-color:#FF5310"/>
			<stop  offset="0.1312" style="stop-color:#DA5429"/>
			<stop  offset="0.3544" style="stop-color:#A15550"/>
			<stop  offset="0.5608" style="stop-color:#73576F"/>
			<stop  offset="0.7437" style="stop-color:#535786"/>
			<stop  offset="0.8964" style="stop-color:#3F5893"/>
			<stop  offset="1" style="stop-color:#385898"/>
		</linearGradient>
		<polygon class="st5" points="64.2,23.6 70.2,27 78.3,31.9 78.3,48.3 72.4,44.8 64.2,40 		"/>
		<linearGradient id="SVGID_6_" gradientUnits="userSpaceOnUse" x1="31.8" y1="55.695" x2="76.91" y2="55.695">
			<stop  offset="0" style="stop-color:#FF5310"/>
			<stop  offset="0.1312" style="stop-color:#DA5429"/>
			<stop  offset="0.3544" style="stop-color:#A15550"/>
			<stop  offset="0.5608" style="stop-color:#73576F"/>
			<stop  offset="0.7437" style="stop-color:#535786"/>
			<stop  offset="0.8964" style="stop-color:#3F5893"/>
			<stop  offset="1" style="stop-color:#385898"/>
		</linearGradient>
		<polygon class="st6" points="62.8,42.5 76.9,50.8 66.6,56.8 45.9,68.9 31.8,60.8 46.6,52 		"/>
		<linearGradient id="SVGID_7_" gradientUnits="userSpaceOnUse" x1="13.44" y1="50.875" x2="44.48" y2="50.875">
			<stop  offset="0" style="stop-color:#FF5310"/>
			<stop  offset="0.1312" style="stop-color:#DA5429"/>
			<stop  offset="0.3544" style="stop-color:#A15550"/>
			<stop  offset="0.5608" style="stop-color:#73576F"/>
			<stop  offset="0.7437" style="stop-color:#535786"/>
			<stop  offset="0.8964" style="stop-color:#3F5893"/>
			<stop  offset="1" style="stop-color:#385898"/>
		</linearGradient>
		<path class="st7" d="M27.6,22.1v38.7c0,0.1,0,0.1,0,0.2c0,0.1,0,0.2,0,0.2v0c0,0.1,0,0.1,0.1,0.2c0,0.1,0,0.1,0.1,0.2
			c0,0.1,0.1,0.1,0.1,0.1c0,0.1,0.1,0.1,0.1,0.2c0,0,0.1,0.1,0.1,0.1s0.1,0.1,0.2,0.1l0,0l16.2,9.4V88l-31-18.3v-56l5.9,3.5
			L27.6,22.1z"/>
		<linearGradient id="SVGID_8_" gradientUnits="userSpaceOnUse" x1="30.37" y1="36.01" x2="44.48" y2="36.01">
			<stop  offset="0" style="stop-color:#FF5310"/>
			<stop  offset="0.1312" style="stop-color:#DA5429"/>
			<stop  offset="0.3544" style="stop-color:#A15550"/>
			<stop  offset="0.5608" style="stop-color:#73576F"/>
			<stop  offset="0.7437" style="stop-color:#535786"/>
			<stop  offset="0.8964" style="stop-color:#3F5893"/>
			<stop  offset="1" style="stop-color:#385898"/>
		</linearGradient>
		<polygon class="st8" points="38.6,17.2 44.5,13.8 44.5,50 36.3,54.8 30.4,58.3 30.4,22.1 		"/>
		<linearGradient id="SVGID_9_" gradientUnits="userSpaceOnUse" x1="14.86" y1="11.26" x2="43.06" y2="11.26">
			<stop  offset="0" style="stop-color:#FF5310"/>
			<stop  offset="0.1312" style="stop-color:#DA5429"/>
			<stop  offset="0.3544" style="stop-color:#A15550"/>
			<stop  offset="0.5608" style="stop-color:#73576F"/>
			<stop  offset="0.7437" style="stop-color:#535786"/>
			<stop  offset="0.8964" style="stop-color:#3F5893"/>
			<stop  offset="1" style="stop-color:#385898"/>
		</linearGradient>
		<polygon class="st9" points="29,3 43.1,11.3 29,19.6 14.9,11.3 		"/>
	</g>
	<path class="st10" d="M98,20.7c0,0,0-0.1-0.1-0.1c0-0.1-0.1-0.2-0.1-0.2c0,0-0.1-0.1-0.1-0.1c0-0.1-0.1-0.1-0.1-0.2
		c-0.1,0-0.1-0.1-0.1-0.1c-0.1,0-0.1-0.1-0.2-0.1l-16.9-10c-0.4-0.3-1-0.3-1.4,0l-16.9,10c-0.1,0-0.1,0.1-0.2,0.1
		c-0.1,0-0.1,0.1-0.1,0.1c-0.1,0-0.1,0.1-0.1,0.2c0,0-0.1,0.1-0.1,0.1c0,0.1-0.1,0.1-0.1,0.2c0,0,0,0.1-0.1,0.1
		c0,0.1-0.1,0.2-0.1,0.4V40l-14.1,8.3v-37c0-0.1,0-0.2-0.1-0.4c0,0,0-0.1-0.1-0.1c0-0.1,0-0.2-0.1-0.2c0,0-0.1-0.1-0.1-0.1
		c0-0.1-0.1-0.1-0.1-0.2c0,0-0.1-0.1-0.1-0.1s-0.1-0.1-0.2-0.1h0L29.7,0c0,0,0,0-0.1,0h-1.2c0,0-0.1,0-0.1,0L11.3,10
		c-0.1,0-0.1,0.1-0.1,0.1c0,0-0.1,0.1-0.1,0.1c0,0-0.1,0.1-0.1,0.2c0,0-0.1,0.1-0.1,0.1c0,0.1-0.1,0.2-0.1,0.2c0,0,0,0.1,0,0.1
		c0,0.1,0,0.2,0,0.4v59.3c0,0.5,0.3,1,0.7,1.2l33.8,19.9c0.1,0,0.2,0.1,0.2,0.1c0,0,0.1,0,0.1,0c0.2,0.1,0.5,0.1,0.7,0
		c0,0,0.1,0,0.1,0c0.1,0,0.2-0.1,0.2-0.1l33.9-19.9c0.4-0.3,0.7-0.7,0.7-1.2V51.6l16.2-9.6c0.4-0.2,0.7-0.7,0.7-1.2V21.1
		C98.1,20.9,98.1,20.8,98,20.7z M29,3l14.1,8.3L29,19.6l-14.1-8.3L29,3z M44.5,13.8V50l-8.2,4.8l-5.9,3.5V22.1l8.2-4.8L44.5,13.8z
		 M44.5,88l-31-18.3v-56l5.9,3.5l8.2,4.8v38.7c0,0.1,0,0.1,0,0.2c0,0.1,0,0.2,0,0.2v0c0,0.1,0,0.1,0.1,0.2c0,0.1,0,0.1,0.1,0.2
		c0,0.1,0.1,0.1,0.1,0.1c0,0.1,0.1,0.1,0.1,0.2c0,0,0.1,0.1,0.1,0.1s0.1,0.1,0.2,0.1l0,0l16.2,9.4C44.5,71.4,44.5,88,44.5,88z
		 M45.9,68.9l-14.1-8.2L46.6,52l16.2-9.5l14.1,8.3l-10.3,6L45.9,68.9z M78.3,69.7L47.3,88V71.4l23-13.4l8.1-4.7V69.7z M78.3,48.3
		l-5.9-3.5L64.2,40V23.6l5.9,3.5l8.2,4.8V48.3z M79.8,29.4l-14.1-8.3l14.1-8.3l14.1,8.3L79.8,29.4z M95.3,40l-14.1,8.3V31.9l8.2-4.8
		l5.9-3.5V40z"/>
	<path class="st11" d="M126.9,60.2v13.8h18.7l-2.6,20h-16.1v49.7h-20.6V93.9H89.5v-20h16.8V58.2c0-17.1,10.4-26.4,25.7-26.4
		c7.3,0,13.6,0.5,15.4,0.8v17.8h-10.6C128.5,50.5,126.9,54.4,126.9,60.2z"/>
</g>
</svg>
